<?xml version="1.0" encoding="UTF-8" standalone="no"?>
<!DOCTYPE svg PUBLIC "-//W3C//DTD SVG 1.1//EN" "http://www.w3.org/Graphics/SVG/1.1/DTD/svg11.dtd">
<!--Generated by Intaglio, www.PurgatoryDesign.com-->
<svg version="1.1" viewBox="26,35,227,263" width="227" height="263" xmlns="http://www.w3.org/2000/svg" xmlns:xlink="http://www.w3.org/1999/xlink"><path fill="#006834" stroke="#00680a" d="M27,225 L27,189 L126,189 L126,225 L27,225 Z"/><path fill="#006834" stroke="#00680a" d="M27,279 L27,243 L126,243 L126,279 L27,279 Z"/><g><path fill="#0000ca" stroke="#0000ca" d="M72,36 L108,36 L108,171 L72,171 L72,36 Z"/><path fill="#0000ca" stroke="#0000ca" d="M72,144 L72,113.5 L180,113.5 L180,144 L72,144 Z"/><path fill="#0000ca" stroke="#0000ca" d="M72,94.5 L72,63 L180,63 L180,94.5 L72,94.5 Z"/></g><g><path fill="#9d0000" stroke="#9d0000" d="M144,171 L180,171 L180,297 L144,297 L144,171 Z"/><path fill="#9d0000" stroke="#9d0000" d="M144,252 L144,216 L252,216 L252,252 L144,252 Z"/></g></svg>
